<svg width="32" height="32" viewBox="0 0 32 32" fill="none" xmlns="http://www.w3.org/2000/svg">
<g clip-path="url(#clip0_29_234)">
<path d="M31.3333 8.67594C31.1521 8.02958 30.7992 7.4444 30.312 6.98261C29.811 6.50661 29.1971 6.16612 28.528 5.99327C26.024 5.33327 15.992 5.33327 15.992 5.33327C11.8098 5.28569 7.62857 5.49497 3.472 5.95994C2.80292 6.14556 2.19008 6.49365 1.688 6.97327C1.19467 7.44794 0.837332 8.03327 0.650666 8.67461C0.202256 11.0903 -0.0156117 13.5431 -1.06362e-06 15.9999C-0.0160011 18.4546 0.201332 20.9066 0.650666 23.3253C0.833332 23.9639 1.18933 24.5466 1.684 25.0173C2.17867 25.4879 2.79467 25.8279 3.472 26.0079C6.00933 26.6666 15.992 26.6666 15.992 26.6666C20.1795 26.7143 24.3661 26.505 28.528 26.0399C29.1971 25.8671 29.811 25.5266 30.312 25.0506C30.799 24.5889 31.1516 24.0036 31.332 23.3573C31.7921 20.9425 32.0158 18.4887 32 16.0306C32.0346 13.5621 31.8112 11.0967 31.3333 8.67461V8.67594ZM12.8027 20.5653V11.4359L21.1493 16.0013L12.8027 20.5653Z" fill="#FF0000"/>
</g>
<defs>
<clipPath id="clip0_29_234">
<rect width="32" height="32" fill="white"/>
</clipPath>
</defs>
</svg>
