<svg width="22" height="24" viewBox="0 0 22 24" fill="none" xmlns="http://www.w3.org/2000/svg">
<path fill-rule="evenodd" clip-rule="evenodd" d="M20.5436 16.6667C19.0547 16.6667 17.6249 16.3998 16.3151 15.9336C15.898 15.8001 15.4217 15.8666 15.124 16.2669L12.503 19.1999C9.10798 17.2669 6.36847 14.1999 4.64097 10.3997L7.26193 7.46681C7.55966 7.1335 7.67859 6.60031 7.55966 6.1335C7.08297 4.60031 6.84483 3 6.84483 1.33331C6.84483 0.60025 6.30884 0 5.65364 0H1.48442C0.829221 0 0.293236 0.60025 0.293236 1.33331C0.293236 13.8665 9.34651 24 20.5436 24C21.1986 24 21.7349 23.3997 21.7349 22.6667V18C21.7349 17.2669 21.1986 16.6667 20.5436 16.6667V16.6667Z" fill="#03A9F4"/>
</svg>
