<svg width="22" height="24" viewBox="0 0 22 24" fill="none" xmlns="http://www.w3.org/2000/svg">
<path fill-rule="evenodd" clip-rule="evenodd" d="M20.4483 16.6667C18.9594 16.6667 17.5297 16.3998 16.2198 15.9336C15.8028 15.8001 15.3264 15.8666 15.0287 16.2669L12.4077 19.1999C9.0127 17.2669 6.2732 14.1999 4.5457 10.3997L7.16666 7.46681C7.46438 7.1335 7.58332 6.60031 7.46438 6.1335C6.9877 4.60031 6.74955 3 6.74955 1.33331C6.74955 0.60025 6.21356 0 5.55837 0H1.38914C0.733945 0 0.19796 0.60025 0.19796 1.33331C0.19796 13.8665 9.25124 24 20.4483 24C21.1033 24 21.6396 23.3997 21.6396 22.6667V18C21.6396 17.2669 21.1033 16.6667 20.4483 16.6667V16.6667Z" fill="#03A9F4"/>
</svg>
