<svg width="56" height="56" viewBox="0 0 56 56" fill="none" xmlns="http://www.w3.org/2000/svg">
<path d="M28 52.5C21.5022 52.5 15.2705 49.9188 10.6759 45.3241C6.08124 40.7295 3.5 34.4978 3.5 28C3.5 21.5022 6.08124 15.2705 10.6759 10.6759C15.2705 6.08124 21.5022 3.5 28 3.5C34.4978 3.5 40.7295 6.08124 45.3241 10.6759C49.9188 15.2705 52.5 21.5022 52.5 28C52.5 34.4978 49.9188 40.7295 45.3241 45.3241C40.7295 49.9188 34.4978 52.5 28 52.5ZM28 56C35.4261 56 42.548 53.05 47.799 47.799C53.05 42.548 56 35.4261 56 28C56 20.5739 53.05 13.452 47.799 8.20101C42.548 2.94999 35.4261 0 28 0C20.5739 0 13.452 2.94999 8.20101 8.20101C2.94999 13.452 0 20.5739 0 28C0 35.4261 2.94999 42.548 8.20101 47.799C13.452 53.05 20.5739 56 28 56Z" fill="#F1F1F1"/>
<path d="M21.9485 17.6925C22.2347 17.5451 22.5561 17.4795 22.8772 17.5029C23.1983 17.5264 23.5067 17.638 23.7685 17.8255L36.0185 26.5755C36.2454 26.7373 36.4303 26.9511 36.5578 27.1988C36.6854 27.4466 36.752 27.7213 36.752 28C36.752 28.2786 36.6854 28.5533 36.5578 28.8011C36.4303 29.0488 36.2454 29.2626 36.0185 29.4244L23.7685 38.1744C23.5068 38.3617 23.1986 38.4732 22.8776 38.4967C22.5567 38.5202 22.2355 38.4547 21.9493 38.3075C21.6632 38.1602 21.4232 37.937 21.2557 37.6622C21.0882 37.3874 20.9997 37.0718 21 36.75V19.25C20.9997 18.9282 21.088 18.6127 21.2553 18.3379C21.4227 18.0631 21.6625 17.8398 21.9485 17.6925Z" fill="#F1F1F1"/>
</svg>
