<svg width="76" height="89" viewBox="0 0 76 89" fill="none" xmlns="http://www.w3.org/2000/svg">
<g clip-path="url(#clip0_29_172)">
<g clip-path="url(#clip1_29_172)">
<path d="M51.9181 32.6057H48.1422C48.1407 30.6707 47.5435 28.8155 46.4817 27.4472C45.4199 26.079 43.9801 25.3095 42.4785 25.3075V20.4421C44.9811 20.446 47.3804 21.7288 49.15 24.009C50.9196 26.2893 51.9151 29.3809 51.9181 32.6057Z" fill="#ACACAC"/>
<path d="M60.3048 32.3511H56.311C56.3068 28.0888 54.8327 24.0024 52.2121 20.9885C49.5916 17.9746 46.0385 16.2792 42.3325 16.2743V11.681C47.0975 11.6871 51.6657 13.8667 55.035 17.7418C58.4043 21.6169 60.2995 26.8709 60.3048 32.3511ZM44.9944 51.8316L49.4675 46.687C50.0663 45.9982 50.8276 45.5266 51.6572 45.3306C52.4867 45.1347 53.348 45.223 54.1343 45.5846L59.582 48.0926C60.3849 48.462 61.0731 49.0997 61.5579 49.9234C62.0427 50.747 62.3018 51.7189 62.3018 52.7135V64.1073C62.3032 64.7845 62.1844 65.4549 61.9527 66.0775C61.721 66.7001 61.3813 67.2617 60.9543 67.7281C60.5273 68.1944 60.0221 68.5556 59.4696 68.7896C58.917 69.0236 58.3287 69.1254 57.7408 69.0888C19.5556 66.3558 11.8435 29.1587 10.4117 14.9147C10.3424 14.2183 10.402 13.513 10.5867 12.845C10.7713 12.1771 11.0769 11.5616 11.4832 11.0392C11.8895 10.5168 12.3874 10.0993 12.9441 9.81403C13.5008 9.52879 14.1036 9.38234 14.7131 9.3843H24.4441C25.3089 9.38426 26.1539 9.68225 26.87 10.2398C27.5862 10.7974 28.1406 11.5889 28.4619 12.5124L30.6405 18.7777C30.9549 19.6821 31.0317 20.6727 30.8613 21.6268C30.691 22.5808 30.2809 23.4564 29.682 24.1451L25.2089 29.2896C25.2089 29.2896 27.6891 49.3442 44.9944 51.8316Z" fill="#ACACAC"/>
</g>
</g>
<defs>
<clipPath id="clip0_29_172">
<rect width="75.5172" height="88.4619" fill="white" transform="translate(0 0.538086)"/>
</clipPath>
<clipPath id="clip1_29_172">
<rect width="67.9655" height="79.6157" fill="white" transform="translate(3.77588 9.38428)"/>
</clipPath>
</defs>
</svg>
