<svg width="35" height="36" viewBox="0 0 35 36" fill="none" xmlns="http://www.w3.org/2000/svg">
<path d="M17.7466 2C20.2505 2 22.6518 3.05357 24.4223 4.92893C26.1928 6.8043 27.1875 9.34784 27.1875 12L27.1875 24C27.1875 26.6522 26.1928 29.1957 24.4223 31.0711C22.6518 32.9464 20.2505 34 17.7466 34C15.2427 34 12.8413 32.9464 11.0708 31.0711C9.30031 29.1957 8.30565 26.6522 8.30565 24L8.30565 12C8.30565 10.6868 8.54984 9.38642 9.0243 8.17316C9.49875 6.95991 10.1942 5.85752 11.0708 4.92893C11.9475 4.00034 12.9883 3.26375 14.1337 2.7612C15.2791 2.25866 16.5068 2 17.7466 2ZM17.7466 32C19.7497 32 21.6708 31.1571 23.0872 29.6569C24.5036 28.1566 25.2993 26.1217 25.2993 24L25.2993 12C25.2993 9.87827 24.5036 7.84344 23.0872 6.34314C21.6708 4.84285 19.7497 4 17.7466 4C15.7435 4 13.8224 4.84285 12.406 6.34314C10.9896 7.84343 10.1938 9.87827 10.1938 12L10.1938 24C10.1938 26.1217 10.9896 28.1566 12.406 29.6569C13.8224 31.1571 15.7435 32 17.7466 32Z" fill="#707070"/>
<path d="M17.7466 21C17.997 21 18.2371 21.1054 18.4141 21.2929C18.5912 21.4804 18.6907 21.7348 18.6907 22L18.6907 26C18.6907 26.2652 18.5912 26.5196 18.4141 26.7071C18.2371 26.8946 17.997 27 17.7466 27C17.4962 27 17.256 26.8946 17.079 26.7071C16.9019 26.5196 16.8025 26.2652 16.8025 26L16.8025 22C16.8025 21.7348 16.9019 21.4804 17.079 21.2929C17.256 21.1054 17.4962 21 17.7466 21Z" fill="#707070"/>
</svg>
