<svg width="61" height="50" viewBox="0 0 61 50" fill="none" xmlns="http://www.w3.org/2000/svg">
<path d="M18.931 41.6667C18.931 40.5165 18.5202 39.5345 17.6985 38.7207C16.8769 37.9069 15.8854 37.5 14.7241 37.5C13.5629 37.5 12.5714 37.9069 11.7497 38.7207C10.9281 39.5345 10.5172 40.5165 10.5172 41.6667C10.5172 42.8168 10.9281 43.7988 11.7497 44.6126C12.5714 45.4264 13.5629 45.8333 14.7241 45.8333C15.8854 45.8333 16.8769 45.4264 17.6985 44.6126C18.5202 43.7988 18.931 42.8168 18.931 41.6667ZM6.31035 25H18.931V16.6667H13.7381C13.4314 16.7101 13.1904 16.8077 13.0151 16.9596L6.60614 23.3073C6.45277 23.5677 6.35417 23.8064 6.31035 24.0234V25ZM48.3793 41.6667C48.3793 40.5165 47.9685 39.5345 47.1468 38.7207C46.3252 37.9069 45.3337 37.5 44.1724 37.5C43.0111 37.5 42.0197 37.9069 41.198 38.7207C40.3763 39.5345 39.9655 40.5165 39.9655 41.6667C39.9655 42.8168 40.3763 43.7988 41.198 44.6126C42.0197 45.4264 43.0111 45.8333 44.1724 45.8333C45.3337 45.8333 46.3252 45.4264 47.1468 44.6126C47.9685 43.7988 48.3793 42.8168 48.3793 41.6667ZM52.5862 19.7917V13.5417C52.5862 13.2378 52.4876 12.9883 52.2904 12.793C52.0932 12.5977 51.8412 12.5 51.5345 12.5H44.1724V5.20833C44.1724 4.90451 44.0738 4.65495 43.8766 4.45964C43.6794 4.26432 43.4274 4.16667 43.1207 4.16667H36.8103C36.5036 4.16667 36.2516 4.26432 36.0544 4.45964C35.8572 4.65495 35.7586 4.90451 35.7586 5.20833V12.5H28.3966C28.0898 12.5 27.8378 12.5977 27.6406 12.793C27.4434 12.9883 27.3448 13.2378 27.3448 13.5417V19.7917C27.3448 20.0955 27.4434 20.3451 27.6406 20.5404C27.8378 20.7357 28.0898 20.8333 28.3966 20.8333H35.7586V28.125C35.7586 28.4288 35.8572 28.6784 36.0544 28.8737C36.2516 29.069 36.5036 29.1667 36.8103 29.1667H43.1207C43.4274 29.1667 43.6794 29.069 43.8766 28.8737C44.0738 28.6784 44.1724 28.4288 44.1724 28.125V20.8333H51.5345C51.8412 20.8333 52.0932 20.7357 52.2904 20.5404C52.4876 20.3451 52.5862 20.0955 52.5862 19.7917ZM61 2.08333V39.5833C61 40.1476 60.7918 40.6358 60.3755 41.0482C59.9592 41.4605 59.4662 41.6667 58.8966 41.6667H52.5862C52.5862 43.967 51.7646 45.931 50.1212 47.5586C48.4779 49.1862 46.495 50 44.1724 50C41.8499 50 39.8669 49.1862 38.2236 47.5586C36.5803 45.931 35.7586 43.967 35.7586 41.6667H23.1379C23.1379 43.967 22.3163 45.931 20.673 47.5586C19.0296 49.1862 17.0467 50 14.7241 50C12.4016 50 10.4186 49.1862 8.77532 47.5586C7.132 45.931 6.31035 43.967 6.31035 41.6667H2.10345C1.53376 41.6667 1.04077 41.4605 0.624461 41.0482C0.208154 40.6358 0 40.1476 0 39.5833C0 39.0191 0.208154 38.5308 0.624461 38.1185C1.04077 37.7062 1.53376 37.5 2.10345 37.5V23.9583C2.10345 23.3941 2.24587 22.7648 2.53071 22.0703C2.81555 21.3759 3.16613 20.8225 3.58244 20.4102L10.09 13.9648C10.5063 13.5525 11.065 13.2053 11.7662 12.9232C12.4673 12.6411 13.1027 12.5 13.6724 12.5H18.931V2.08333C18.931 1.5191 19.1392 1.03082 19.5555 0.61849C19.9718 0.206163 20.4648 0 21.0345 0H58.8966C59.4662 0 59.9592 0.206163 60.3755 0.61849C60.7918 1.03082 61 1.5191 61 2.08333Z" fill="#41D399"/>
</svg>
