<svg width="64" height="75" viewBox="0 0 64 75" fill="none" xmlns="http://www.w3.org/2000/svg">
<g clip-path="url(#clip0_29_195)">
<path d="M31.8258 16.6892L8.10751 44.6232C7.93168 44.8348 7.70701 44.9334 7.51382 45.1088V71.9165C7.51382 72.5316 7.69678 73.1215 8.02245 73.5565C8.34812 73.9914 8.78982 74.2358 9.25039 74.2358H54.4011C54.8617 74.2358 55.3034 73.9914 55.6291 73.5565C55.9548 73.1215 56.1377 72.5316 56.1377 71.9165V45.1146C55.9532 44.9464 55.734 44.8508 55.5668 44.6507L31.8258 16.6892ZM42.2452 54.5221C42.2452 54.8296 42.1537 55.1246 41.9909 55.342C41.828 55.5595 41.6072 55.6817 41.3769 55.6817H35.2989V63.7991C35.2989 64.1067 35.2074 64.4016 35.0446 64.6191C34.8818 64.8365 34.6609 64.9587 34.4306 64.9587H29.2209C28.9906 64.9587 28.7698 64.8365 28.6069 64.6191C28.4441 64.4016 28.3526 64.1067 28.3526 63.7991V55.6817H22.2746C22.0444 55.6817 21.8235 55.5595 21.6607 55.342C21.4978 55.1246 21.4064 54.8296 21.4064 54.5221V47.5643C21.4064 47.2567 21.4978 46.9618 21.6607 46.7443C21.8235 46.5268 22.0444 46.4047 22.2746 46.4047H28.3526V38.2873C28.3526 37.9797 28.4441 37.6847 28.6069 37.4673C28.7698 37.2498 28.9906 37.1276 29.2209 37.1276H34.4306C34.6609 37.1276 34.8818 37.2498 35.0446 37.4673C35.2074 37.6847 35.2989 37.9797 35.2989 38.2873V46.4047H41.3769C41.6072 46.4047 41.828 46.5268 41.9909 46.7443C42.1537 46.9618 42.2452 47.2567 42.2452 47.5643V54.5221ZM62.5077 34.2691L34.7291 1.50963C33.934 0.549606 32.9003 0.0180664 31.8285 0.0180664C30.7566 0.0180664 29.7229 0.549606 28.9279 1.50963L1.14278 34.2691C0.973058 34.4727 0.835022 34.7189 0.736562 34.9937C0.638101 35.2685 0.581147 35.5666 0.568951 35.8708C0.556755 36.175 0.589558 36.4795 0.665484 36.7667C0.741411 37.054 0.858974 37.3185 1.01146 37.5451L3.3352 40.9979C3.48761 41.2246 3.67197 41.4089 3.87774 41.5404C4.08351 41.6719 4.30666 41.748 4.53445 41.7643C4.76223 41.7806 4.99019 41.7368 5.2053 41.6353C5.4204 41.5339 5.61844 41.3769 5.7881 41.1733L30.6775 11.8521C30.9947 11.4783 31.4032 11.272 31.8263 11.272C32.2494 11.272 32.6579 11.4783 32.9752 11.8521L57.8645 41.1718C58.0342 41.3755 58.2322 41.5325 58.4473 41.6339C58.6624 41.7353 58.8904 41.7791 59.1182 41.7628C59.346 41.7465 59.5691 41.6705 59.7749 41.539C59.9806 41.4075 60.165 41.2231 60.3174 40.9964L62.6401 37.5436C62.9476 37.0859 63.1063 36.4838 63.0815 35.8698C63.0567 35.2557 62.8503 34.68 62.5077 34.2691Z" fill="#ACACAC"/>
</g>
<defs>
<clipPath id="clip0_29_195">
<rect width="62.5164" height="74.2162" fill="white" transform="translate(0.567749 0.0197754)"/>
</clipPath>
</defs>
</svg>
