<svg width="63" height="72" viewBox="0 0 63 72" fill="none" xmlns="http://www.w3.org/2000/svg">
<path d="M49.5 18C49.5 27.9422 41.4422 36 31.3734 36C21.5578 36 13.3734 27.9422 13.3734 18C13.3734 8.05922 21.5578 0 31.3734 0C41.4422 0 49.5 8.05922 49.5 18ZM40.3734 50.9062C36.6188 51.9047 33.6234 55.4344 33.6234 59.625V63C33.6234 63.5906 33.9891 64.1672 34.4109 64.5891L36.6609 66.8391C37.5328 67.725 38.9672 67.725 39.8391 66.8391C40.725 65.9672 40.725 64.5328 39.8391 63.6609L38.1234 62.0719V59.625C38.1234 57.1359 40.2609 55.125 42.6234 55.125C45.2391 55.125 47.25 57.1359 47.25 59.625V62.0719L45.6609 63.6609C44.775 64.5328 44.775 65.9672 45.6609 66.8391C46.5328 67.725 47.9672 67.725 48.8391 66.8391L51.0891 64.5891C51.5109 64.1672 51.75 63.5906 51.75 63V59.625C51.75 55.4344 48.8812 51.9047 45 50.9062V43.425C55.3359 45.9422 63 55.1391 63 66.375V67.5C63 69.9891 60.9891 72 58.5 72H4.5C2.01516 72 0 69.9891 0 67.5V66.375C0 55.2656 7.66828 45.9422 18 43.425V52.0734C14.7516 53.0437 12.375 56.0531 12.375 59.625C12.375 63.9703 15.9047 67.5 20.25 67.5C24.5953 67.5 28.125 63.9703 28.125 59.625C28.125 56.0531 25.7484 53.0437 22.5 52.0734V42.7781C22.8797 42.7641 23.2453 42.75 23.625 42.75H39.375C39.7547 42.75 40.1203 42.7641 40.5 42.7781L40.3734 50.9062ZM23.4984 59.625C23.4984 61.4953 22.1203 63 20.1234 63C18.3797 63 16.7484 61.4953 16.7484 59.625C16.7484 57.7547 18.3797 56.25 20.1234 56.25C22.1203 56.25 23.4984 57.7547 23.4984 59.625Z" fill="#41D399"/>
</svg>
