<svg width="45" height="72" viewBox="0 0 45 72" fill="none" xmlns="http://www.w3.org/2000/svg">
<g clip-path="url(#clip0_24_96)">
<path d="M43.941 37.9891C43.8533 37.7433 43.7491 37.5037 43.629 37.2721L43.644 37.3051C43.206 36.2821 39.684 29.4781 39.096 28.5511L22.743 -3.00293L5.97301 29.3251C5.40301 30.2551 2.27701 36.2851 1.84501 37.3051L1.67401 37.6831C0.558684 40.4014 -0.0101476 43.3128 1.16449e-05 46.2511C1.16449e-05 52.2837 2.39646 58.0692 6.66216 62.3349C10.9279 66.6006 16.7134 68.9971 22.746 68.9971C28.7786 68.9971 34.5642 66.6006 38.8299 62.3349C43.0956 58.0692 45.492 52.2837 45.492 46.2511V46.2331L45.495 45.9301C45.495 43.0651 44.925 40.3321 43.89 37.8421L43.941 37.9831V37.9891ZM22.755 63.0541C19.8452 63.0547 16.9855 62.2975 14.4572 60.8571C11.929 59.4167 9.81947 57.3427 8.33633 54.8393C6.85318 52.3359 6.04755 49.4894 5.99874 46.5801C5.94994 43.6707 6.65966 40.7988 8.05801 38.2471L8.01301 38.3341C7.79327 39.5023 7.68279 40.6884 7.68301 41.8771V41.8801C7.68619 47.2068 9.80362 52.3144 13.5702 56.0809C17.3367 59.8475 22.4443 61.9649 27.771 61.9681C28.11 61.9681 28.473 61.9681 28.809 61.9501C26.8916 62.6869 24.8541 63.0612 22.8 63.0541H22.731H22.734H22.755Z" fill="#41D399"/>
</g>
<defs>
<clipPath id="clip0_24_96">
<rect width="45" height="72" fill="white"/>
</clipPath>
</defs>
</svg>
