<svg width="556" height="640" viewBox="0 0 556 640" fill="none" xmlns="http://www.w3.org/2000/svg">
<g clip-path="url(#clip0_1_16)">
<line x1="308.424" y1="312.987" x2="377.368" y2="255.136" stroke="#4CC082" stroke-width="10" stroke-linecap="round"/>
<line x1="191.915" y1="313.483" x2="261.424" y2="255.157" stroke="#8D55E9" stroke-width="9.26135" stroke-linecap="round"/>
<line x1="0.114153" y1="344.303" x2="75.2997" y2="281.215" stroke="#FF5761" stroke-width="1.85227" stroke-linecap="round"/>
<line x1="43.2188" y1="521.546" x2="112.163" y2="463.695" stroke="#EC6C5A" stroke-width="10" stroke-linecap="round"/>
<line x1="472.757" y1="379.84" x2="537.871" y2="325.204" stroke="#8D55E9" stroke-width="15" stroke-linecap="round"/>
<line x1="187.172" y1="245.207" x2="262.358" y2="182.119" stroke="#8D55E9" stroke-width="1.85227" stroke-linecap="round"/>
<line x1="148.454" y1="362.96" x2="223.64" y2="299.871" stroke="white" stroke-width="1.85227" stroke-linecap="round"/>
<line x1="388.532" y1="171.783" x2="459.461" y2="112.267" stroke="#FF5761" stroke-width="7.40908" stroke-linecap="round"/>
<line x1="271.97" y1="593.913" x2="342.899" y2="534.396" stroke="#4CC082" stroke-width="7.40908" stroke-linecap="round"/>
<line x1="253.353" y1="499.875" x2="321.444" y2="442.74" stroke="#EC6C5A" stroke-width="11.1136" stroke-linecap="round"/>
<line x1="307.896" y1="361.066" x2="366.055" y2="312.265" stroke="#EC6C5A" stroke-width="24.0795" stroke-linecap="round"/>
<line x1="432.973" y1="564.025" x2="498.087" y2="509.388" stroke="#F4DC5A" stroke-width="15" stroke-linecap="round"/>
<line x1="123.769" y1="629.13" x2="188.882" y2="574.493" stroke="#FF5761" stroke-width="15" stroke-linecap="round"/>
<line x1="354.799" y1="82.607" x2="419.913" y2="27.9701" stroke="#8D55E9" stroke-width="15" stroke-linecap="round"/>
</g>
<defs>
<clipPath id="clip0_1_16">
<rect width="556" height="639.196" fill="white" transform="translate(0 0.5)"/>
</clipPath>
</defs>
</svg>
