<svg width="80" height="80" viewBox="0 0 80 80" fill="none" xmlns="http://www.w3.org/2000/svg">
<path d="M23.7248 30.1567C24.314 32.2554 25.2365 34.0599 26.0046 35.3314L26.0049 35.3319C26.3154 35.8472 26.647 36.3495 26.9989 36.8376L27.0012 36.8407C27.0423 36.8986 27.0839 36.9562 27.1262 37.0133L28.0154 36.2807L28.3333 36.6666L28.6513 37.0525L27.7505 37.7946L27.8408 37.9043L27.9879 37.8798L28.1401 38.2466C29.1541 40.6899 30.8979 42.7603 33.1332 44.1749C35.3685 45.5894 37.9862 46.2791 40.6283 46.1495C43.2704 46.02 45.808 45.0775 47.8942 43.4511C49.9804 41.8246 51.5133 39.5935 52.2833 37.0627L52.3532 36.8332L52.576 36.7441C52.8035 36.6531 52.9945 36.5195 53.1391 36.4027L53.1391 36.4027C53.7759 35.8883 54.4553 34.8857 55.0559 33.764L55.056 33.7637C56.2927 31.4572 57.5567 27.9348 57.5567 24.685C57.5567 18.4467 53.5641 14.6786 49.1883 12.4523C44.8305 10.2357 39.8791 9.41739 37.3907 9.0856C35.1996 8.79543 33.4735 9.06377 32.1215 9.73738L23.7248 30.1567ZM23.7248 30.1567C23.1374 28.0587 22.8749 25.6223 23.4825 23.1214C24.0726 20.6941 25.4669 18.2877 28.0263 16.1216L28.1536 16.014L28.1907 15.8515L28.2357 15.655L28.2357 15.6548L28.327 15.2565C28.4996 14.5238 28.774 13.4855 29.3314 12.471C29.8978 11.4414 30.7659 10.4137 32.1213 9.73749L23.7248 30.1567ZM30.0483 36.6911V36.6066V36.605V36.4779L30.109 36.3662C30.438 35.7611 30.7822 34.8938 31.126 33.6398C31.3179 32.9346 31.4854 31.9479 31.6583 30.9071C31.6583 30.9068 31.6584 30.9066 31.6584 30.9064L31.7198 30.5282L31.7201 30.5264C31.7299 30.4672 31.7398 30.4077 31.7497 30.3479C31.9007 29.4378 32.0622 28.4649 32.2564 27.497L30.0483 36.6911ZM30.0483 36.6911L30.0761 36.7709M30.0483 36.6911L30.0761 36.7709M30.0761 36.7709C30.835 38.9535 32.2925 40.8249 34.2227 42.0954C36.1529 43.3659 38.4482 43.9644 40.7531 43.7984C43.0579 43.6324 45.2437 42.711 46.9719 41.177C48.5577 39.7694 49.6771 37.918 50.1894 35.8695M30.0761 36.7709L50.1894 35.8695M50.1894 35.8695L50.5614 35.9946L50.5088 35.2465C50.503 35.1639 50.5 35.0811 50.5 34.9983L50.1894 35.8695ZM49.7392 28.9721L49.7393 28.9725C50.11 30.2197 50.5 32.1927 50.5 34.9982L49.7392 28.9721ZM49.7392 28.9721C49.6664 28.7281 49.5857 28.4865 49.4971 28.2478L49.3698 27.9044M49.7392 28.9721L49.3698 27.9044M49.3698 27.9044L49.004 27.9222M49.3698 27.9044L49.004 27.9222M49.004 27.9222L48.9478 27.925H48.8933V27.9249M49.004 27.9222L48.8933 27.9249M48.8933 27.9249L48.8825 27.9251M48.8933 27.9249L48.8825 27.9251M48.8825 27.9251C47.6688 27.9513 46.4555 27.8589 45.2597 27.6491L45.2566 27.6486M48.8825 27.9251L45.2566 27.6486M45.2566 27.6486C42.4582 27.176 38.6436 25.992 34.1345 23.2303L33.6494 22.9332M45.2566 27.6486L33.6494 22.9332M33.6494 22.9332L33.417 23.4523M33.6494 22.9332L33.417 23.4523M33.417 23.4523C33.3107 23.6897 33.2059 23.9537 33.1025 24.2435L33.1019 24.2451M33.417 23.4523L33.1019 24.2451M33.1019 24.2451C32.7638 25.2024 32.49 26.3269 32.2564 27.4969L33.1019 24.2451ZM25.9736 29.5283L25.9736 29.5283C25.4592 27.6946 25.2617 25.681 25.7508 23.6735L25.9736 29.5283ZM25.9736 29.5283L25.9747 29.5324M25.9736 29.5283L25.9747 29.5324M25.9747 29.5324C26.4023 31.0082 27.0096 32.4258 27.783 33.7533L28.215 33.5016M25.9747 29.5324L28.215 33.5016M28.215 33.5016L28.6921 33.6513C28.7571 33.444 28.8178 33.2355 28.8743 33.0257C29.029 32.459 29.178 31.6033 29.3548 30.5273C29.3549 30.5269 29.355 30.5265 29.355 30.5261L29.418 30.1553L29.418 30.1553L29.4189 30.1498C29.5836 29.1084 29.767 28.07 29.9689 27.0352C30.2118 25.8223 30.5112 24.5743 30.9029 23.4653C31.2896 22.3772 31.801 21.3137 32.5241 20.5527L32.5243 20.5525L33.1994 19.8412L34.0158 20.3859L34.0162 20.3861C38.8713 23.6189 42.8865 24.8806 45.6449 25.346C46.6882 25.5309 47.747 25.6137 48.8063 25.5932L48.8081 25.5932C49.0723 25.5872 49.3361 25.5695 49.5987 25.5402L49.5987 25.5403L49.6098 25.5389L49.7714 25.5172L49.7907 25.5146L49.8097 25.5105L49.8299 25.5062L50.596 25.3523L50.7568 25.6018L49.778 26.231L50.0483 26.6516L50.3187 27.0722L51.2693 26.4611C51.2996 26.5216 51.3289 26.5825 51.3574 26.6439C51.6024 27.1814 51.8082 27.7359 51.9732 28.303L51.9742 28.3063C52.2133 29.1074 52.4477 30.1246 52.6109 31.3747L52.8387 33.12L53.5624 31.5156C54.4625 29.5202 55.2233 26.9643 55.2233 24.685C55.2233 19.6802 52.1017 16.5526 48.13 14.5326C44.1412 12.5025 39.5161 11.7226 37.0827 11.3993C35.2387 11.1528 34.0031 11.4062 33.1635 11.8259C32.3258 12.2429 31.7707 12.8801 31.3772 13.5935L31.3766 13.5945C30.9762 14.3244 30.759 15.1104 30.5983 15.7919L30.5983 15.7919L30.597 15.7978L30.5393 16.0566C30.5275 16.1067 30.5158 16.1567 30.5043 16.2061C30.46 16.3961 30.4178 16.577 30.3786 16.7165L30.3786 16.7165L30.3773 16.7214C30.3333 16.8844 30.274 17.043 30.2002 17.1949L30.1881 17.2198C30.1323 17.3263 29.9957 17.5612 29.7328 17.7394L29.7135 17.7525L29.6955 17.7673C27.3793 19.6747 26.2281 21.7114 25.7509 23.6733L28.215 33.5016ZM51.5804 34.6488L51.5444 34.4964L51.6274 34.621L51.6324 34.6176L51.5404 34.4797L51.3567 33.7016H51.355H51.2036L51.0776 33.7857L51.0726 33.789L51.355 34.2754V34.7016H51.3567V34.2783L51.5737 34.6521L51.5804 34.6488Z" fill="white" stroke="white"/>
<path d="M54.8855 52.9666C54.9815 52.2601 55.0276 51.5576 55.0064 50.9523L54.9944 50.6107L54.6717 50.4979C53.9462 50.2442 53.2107 50.0142 52.4718 49.8096L51.8383 49.6343V50.1697L51.293 51.2065H28.2898L27.7388 50.1631L27.5498 49.8051L27.1604 49.9155C26.9555 49.9735 26.7517 50.0347 26.5493 50.097L26.2306 50.1953L26.1989 50.5274C26.1862 50.6609 26.1772 50.7948 26.172 50.9288L26.172 50.9288L26.1718 50.9357C26.1549 51.6156 26.1949 52.2956 26.2914 52.9688M54.8855 52.9666C54.787 53.7038 54.6298 54.4318 54.4155 55.1439L54.3083 55.4999H53.9367H51.6669C51.4503 55.5 51.238 55.5604 51.0538 55.6743C50.8696 55.7883 50.7208 55.9513 50.6239 56.145L50.6239 56.1451L48.9572 59.4785L48.957 59.4789C48.8759 59.6408 48.8335 59.8193 48.8333 60.0004V63.3332C48.8333 63.6426 48.9562 63.9394 49.175 64.1581C49.3938 64.3769 49.6906 64.4999 50 64.4999H52.8333V62.1665H51.6667H51.1667V61.6665V60.3932V60.2752L51.2195 60.1696L52.2495 58.1096L52.3876 57.8332H52.6967H57.3033H57.6124L57.7505 58.1096L58.7805 60.1696L58.8333 60.2752V60.3932V61.6665V62.1665H58.3333H57.1667V64.4999H60C60.3094 64.4999 60.6062 64.3769 60.825 64.1581C61.0438 63.9394 61.1667 63.6426 61.1667 63.3332V60.0004C61.1665 59.8193 61.1241 59.6408 61.043 59.4789L61.0428 59.4785L59.3761 56.1451L59.3761 56.145C59.2792 55.9513 59.1304 55.7883 58.9462 55.6743C58.762 55.5604 58.5497 55.5 58.3331 55.4999H57.39H56.7598L56.9031 54.8862C57.1032 54.0289 57.2375 53.1577 57.3048 52.28L57.3603 51.5556L58.0171 51.8662C59.6666 52.6461 61.2043 53.5433 62.5411 54.5174L62.5413 54.5176C65.7845 56.8833 67.1667 59.2 67.1667 60.9499V66.6665V67.1665H66.6667H13.3333H12.8333V66.6665V60.9499C12.8333 59.2 14.2155 56.8833 17.4587 54.5176C19.104 53.3168 21.0597 52.2357 23.1486 51.3434L23.8134 51.0594L23.8445 51.7817C23.9001 53.0706 24.1069 54.3485 24.4608 55.5892C24.4608 55.5892 24.4608 55.5893 24.4608 55.5894L24.4741 55.6358L24.5769 55.9957L24.2606 56.1957C23.3639 56.763 22.6965 57.629 22.3763 58.6407C22.056 59.6523 22.1036 60.7446 22.5106 61.7246C22.9176 62.7046 23.6579 63.5092 24.6006 63.9964C25.5433 64.4835 26.6278 64.6219 27.6626 64.387C28.6974 64.1521 29.6159 63.5591 30.2559 62.7126C30.8959 61.8662 31.2162 60.8209 31.1602 59.7612C31.1042 58.7015 30.6756 57.6958 29.95 56.9215C29.2243 56.1472 28.2484 55.6543 27.1946 55.5297L26.8705 55.4914L26.7751 55.1792C26.5545 54.4567 26.3927 53.7175 26.2914 52.9688M54.8855 52.9666C54.8855 52.9665 54.8856 52.9663 54.8856 52.9661L54.39 52.8999L54.8854 52.9672C54.8855 52.967 54.8855 52.9668 54.8855 52.9666ZM26.2914 52.9688C26.2913 52.9681 26.2913 52.9675 26.2912 52.9668L26.7866 52.8999L26.2917 52.9709C26.2916 52.9702 26.2915 52.9695 26.2914 52.9688ZM28.4443 47.1757L28.445 47.1756C28.5541 47.1506 28.6727 47.1729 28.8594 47.3894C29.0559 47.6174 29.2257 47.9494 29.4099 48.316L29.8566 48.0915L29.4126 48.3212C29.4268 48.3488 29.4439 48.3827 29.4622 48.4189C29.4941 48.4822 29.5296 48.5526 29.5598 48.6086L29.7014 48.8715H30H49.5833H49.8857L50.0262 48.6037C50.1983 48.2752 50.4798 47.8547 50.7991 47.5478C51.1414 47.2186 51.397 47.1394 51.5552 47.1756L51.5562 47.1758C53.4121 47.5963 55.2833 48.1881 57.0816 48.912L57.1358 48.9338L57.1669 48.9464C60.5555 50.3225 63.66 52.1708 65.9083 54.2678C68.1649 56.3725 69.5 58.6698 69.5 60.9499V69.4999H10.5V60.9499C10.5 58.0493 12.6644 55.1265 16.0839 52.6317C19.4796 50.1542 23.9985 48.1876 28.4443 47.1757ZM26.6667 62.1932C27.8372 62.1932 28.8333 61.2383 28.8333 60.0015C28.8333 58.7668 27.8375 57.8099 26.6667 57.8099C25.4961 57.8099 24.5 58.7648 24.5 60.0015C24.5 61.2363 25.4958 62.1932 26.6667 62.1932Z" fill="white" stroke="white"/>
</svg>
