<svg width="72" height="72" viewBox="0 0 72 72" fill="none" xmlns="http://www.w3.org/2000/svg">
<path fill-rule="evenodd" clip-rule="evenodd" d="M44.376 34.305C46.0952 34.3111 47.7824 33.8412 49.251 32.9475C50.7411 33.8392 52.4498 34.2989 54.186 34.275L59.7661 32.4435C61.3366 31.2735 62.4165 29.6505 62.8215 27.849C63.2262 26.039 62.9303 24.1428 61.9935 22.542C61.053 20.9115 59.5185 19.6215 57.651 18.8895C57.2235 17.145 56.1495 15.5835 54.6045 14.466L49.1595 12.747H48.5445C47.334 11.151 45.516 10.0125 43.4355 9.54904L31.761 8.95654C29.82 9.10204 27.99 9.83254 26.5665 11.031C25.8909 10.8873 25.2023 10.8129 24.5115 10.809C22.855 10.8073 21.2276 11.2452 19.7955 12.078C18.393 12.903 17.283 14.0775 16.6035 15.459L12.1665 18.294C11.0769 19.6044 10.4776 21.2533 10.4715 22.9575C10.461 23.6595 10.5645 24.3585 10.7775 25.0335C9.61505 26.397 8.98805 28.071 9.00005 29.793C8.99705 31.788 9.84155 33.7095 11.361 35.1615C11.4825 36.5895 12.036 37.962 12.96 39.1275C13.9174 40.3178 15.1745 41.2316 16.602 41.775C18.2516 42.6979 19.6746 43.977 20.7675 45.519C21.8167 47.0029 22.4909 48.7188 22.7325 50.52H26.8125V38.904L22.848 35.382L20.1675 38.064C19.8861 38.3453 19.5044 38.5032 19.1065 38.5031C18.7086 38.503 18.3271 38.3448 18.0458 38.0633C17.7645 37.7818 17.6066 37.4002 17.6067 37.0023C17.6069 36.6044 17.7651 36.2228 18.0465 35.9415L21.1725 32.817L20.22 27.5775L15.981 25.458C15.6252 25.28 15.3546 24.9679 15.2289 24.5904C15.1031 24.2129 15.1325 23.8009 15.3105 23.445C15.4886 23.0892 15.8007 22.8186 16.1782 22.6929C16.5557 22.5671 16.9677 22.5965 17.3235 22.7745L21.474 24.8505L26.6655 21.546L25.0665 17.28C24.9353 16.9096 24.9547 16.5026 25.1205 16.1463C25.2863 15.79 25.5852 15.513 25.9531 15.3749C26.321 15.2367 26.7284 15.2485 27.0877 15.4075C27.447 15.5666 27.7295 15.8603 27.8745 16.2255L29.5815 20.7765H31.68L32.655 18.8295L31.2285 15.5025C31.0784 15.1381 31.0778 14.7293 31.2267 14.3644C31.3756 13.9995 31.6622 13.7078 32.0244 13.5525C32.3866 13.3972 32.7954 13.3908 33.1624 13.5345C33.5294 13.6782 33.8251 13.9606 33.9855 14.3205L35.2245 17.211L40.1745 18.111C40.2021 18.0849 40.2306 18.0599 40.26 18.036L43.329 15.582C43.6402 15.34 44.0341 15.2301 44.4256 15.2762C44.8171 15.3222 45.1747 15.5206 45.4211 15.8283C45.6675 16.136 45.7828 16.5283 45.7422 16.9204C45.7016 17.3125 45.5083 17.6729 45.204 17.9235L42.996 19.6905L45.5895 23.025L46.6065 20.991C46.731 20.7419 46.9224 20.5324 47.1593 20.3859C47.3961 20.2394 47.6691 20.1617 47.9475 20.1615H51.63C52.0279 20.1615 52.4094 20.3196 52.6907 20.6009C52.972 20.8822 53.13 21.2637 53.13 21.6615C53.13 22.0594 52.972 22.4409 52.6907 22.7222C52.4094 23.0035 52.0279 23.1615 51.63 23.1615H48.8745L48.246 24.42L51.342 25.107C51.462 25.134 51.5775 25.176 51.687 25.23L54.141 26.457C54.3173 26.5451 54.4746 26.667 54.6038 26.8158C54.7329 26.9646 54.8316 27.1374 54.894 27.3244C54.9564 27.5113 54.9813 27.7087 54.9674 27.9053C54.9536 28.1018 54.9011 28.2937 54.813 28.47C54.725 28.6463 54.6031 28.8036 54.4543 28.9328C54.3055 29.0619 54.1326 29.1605 53.9457 29.2229C53.5682 29.349 53.1561 29.3199 52.8 29.142L50.511 27.996L45.168 26.8095C44.8274 26.7334 44.524 26.5408 44.31 26.265L40.365 21.195L35.4705 20.3055C35.3766 20.3932 35.2717 20.4683 35.1585 20.529L34.107 22.6305V23.844H36.288C36.5212 23.8436 36.7513 23.8975 36.96 24.0015L41.8695 26.457C42.0457 26.5452 42.2029 26.6672 42.3319 26.8161C42.461 26.9649 42.5594 27.1378 42.6217 27.3247C42.684 27.5116 42.7088 27.709 42.6948 27.9055C42.6808 28.102 42.6282 28.2938 42.54 28.47C42.4519 28.6462 42.3299 28.8034 42.181 28.9324C42.0322 29.0615 41.8593 29.1599 41.6724 29.2222C41.4855 29.2845 41.2881 29.3093 41.0916 29.2953C40.8951 29.2813 40.7032 29.2287 40.527 29.1405L35.934 26.844H34.107V29.64C34.107 30.0379 33.949 30.4194 33.6677 30.7007C33.3864 30.982 33.0049 31.14 32.607 31.14C32.2092 31.14 31.8277 30.982 31.5464 30.7007C31.2651 30.4194 31.107 30.0379 31.107 29.64V23.7765H28.749L23.217 27.2955L24.1725 32.5455L29.3085 37.11C29.4666 37.2508 29.5931 37.4234 29.6797 37.6165C29.7663 37.8096 29.8111 38.0189 29.811 38.2305V50.52H34.188V42.2175C34.1915 40.7262 34.6499 39.2714 35.502 38.0475C36.3975 36.7668 37.6293 35.7582 39.0615 35.133C39.8865 34.848 40.0875 34.4655 40.3365 33.996C40.5015 33.684 40.6875 33.333 41.091 32.946C41.4405 33.1635 41.712 33.354 41.9475 33.5205C42.678 34.035 43.062 34.3065 44.3775 34.3065L44.376 34.305ZM34.5 57H22.5V54H34.5V57ZM34.5 63H22.5V60H34.5V63Z" fill="#41D399"/>
</svg>
