<svg width="72" height="72" viewBox="0 0 72 72" fill="none" xmlns="http://www.w3.org/2000/svg">
<path d="M44.484 44.484C42.2337 46.7337 39.182 47.9974 36 47.9974C32.818 47.9974 29.7663 46.7337 27.516 44.484H44.484ZM27 30H27.03H27ZM45 30H45.03H45ZM63 36C63 39.5457 62.3016 43.0567 60.9447 46.3325C59.5879 49.6082 57.5991 52.5847 55.0919 55.0919C52.5847 57.5991 49.6082 59.5879 46.3325 60.9447C43.0567 62.3016 39.5457 63 36 63C32.4543 63 28.9433 62.3016 25.6675 60.9447C22.3918 59.5879 19.4153 57.5991 16.9081 55.0919C14.4009 52.5847 12.4121 49.6082 11.0553 46.3325C9.69838 43.0567 9 39.5457 9 36C9 28.8392 11.8446 21.9716 16.9081 16.9081C21.9716 11.8446 28.8392 9 36 9C43.1608 9 50.0284 11.8446 55.0919 16.9081C60.1554 21.9716 63 28.8392 63 36Z" stroke="white" stroke-width="6" stroke-linecap="round" stroke-linejoin="round"/>
</svg>
