<svg width="72" height="72" viewBox="0 0 72 72" fill="none" xmlns="http://www.w3.org/2000/svg">
<path d="M36.1339 38.4514C41.4496 38.4514 43.9144 42.4868 44.4342 48.2153C44.5568 49.5866 44.4286 51.5846 44.2531 53.8999C43.6557 61.5904 42.9683 71.0404 48.0893 71.0404C52.4194 71.0404 54.6447 62.7311 55.9283 53.2609C57.1681 43.8851 55.8552 39.2197 56.4998 35.0573C57.7306 27.1699 64.6167 20.0981 62.4893 10.0406C61.3114 4.46175 58.2402 1.83713 55.1959 0.734625C48.1861 -1.81687 43.6591 3.09938 36.1317 3.09938C28.6043 3.09938 24.0784 -1.81687 17.0652 0.734625C14.0243 1.83713 10.9531 4.46175 9.77293 10.0406C7.64781 20.097 14.5306 27.1699 15.7647 35.0573C16.4093 39.2197 15.0976 43.8851 16.3373 53.2609C17.6209 62.7322 19.8462 71.0404 24.1763 71.0404C29.2939 71.0404 28.6111 61.5904 28.0126 53.8999C27.8371 51.5858 27.7077 49.5866 27.8303 48.2153C28.3478 42.4868 30.8476 38.4514 36.1317 38.4514H36.1339Z" fill="#41D399"/>
</svg>
