<svg width="72" height="72" viewBox="0 0 72 72" fill="none" xmlns="http://www.w3.org/2000/svg">
<path d="M6.16723 38.2005H12.4076C12.8812 38.2005 13.32 38.4367 13.581 38.826C13.581 38.826 14.7701 40.6215 15.957 42.4024C16.6151 36.5681 18.9067 16.1741 18.9067 16.1741C18.9855 15.5014 19.5379 14.9704 20.2241 14.931C20.5535 14.911 20.8793 15.0079 21.1442 15.2047C21.4091 15.4014 21.596 15.6854 21.672 16.0065C21.672 16.0065 24.66 28.5356 26.0741 34.4554L27.945 29.1589C28.0409 28.8858 28.2188 28.649 28.4544 28.481C28.6901 28.3129 28.9719 28.2218 29.2613 28.2201C29.5507 28.2184 29.8336 28.3061 30.0712 28.4714C30.3088 28.6366 30.4896 28.8712 30.5887 29.1431C30.5887 29.1431 33.3641 36.6817 33.9199 38.2005H39.3356C39.8092 38.2005 40.248 38.4367 40.5079 38.826C40.5079 38.826 41.6981 40.6215 42.8827 42.4035C43.5431 36.5692 45.8347 16.1752 45.8347 16.1752C45.872 15.8465 46.024 15.5413 46.264 15.3136C46.504 15.0858 46.8167 14.95 47.1469 14.9299C47.4772 14.9099 47.804 15.007 48.0698 15.2041C48.3355 15.4012 48.5233 15.6857 48.6 16.0076L52.9999 34.4565L54.8741 29.16C54.9699 28.8872 55.1477 28.6507 55.3832 28.4828C55.6186 28.3149 55.9002 28.2239 56.1893 28.2221C56.4785 28.2204 56.7611 28.3081 56.9985 28.4731C57.2359 28.6382 57.4165 28.8726 57.5156 29.1442C57.5156 29.1442 60.2944 36.6829 60.849 38.2016H66.384L66.6787 37.6391C69.3675 33.0131 71.3306 24.4474 71.3306 18.2092C71.3306 10.2499 65.538 0.63562 54.2497 0.63562C38.1195 0.63562 36.0461 15.7455 36.0461 15.7455C36.0461 15.7455 34.0459 0.708745 17.9257 0.708745C7.03573 0.708745 1.1936 9.97425 1.1936 18.2092C1.1936 25.3215 4.3076 34.101 5.90285 37.7066L6.16723 38.2005V38.2005Z" fill="#41D399"/>
<path d="M59.868 41.0131C59.2763 41.0131 58.7509 40.6429 58.5495 40.0928L56.223 33.7737L54.0686 39.8847C53.8605 40.4731 53.2924 40.8544 52.6703 40.8173C52.3667 40.8033 52.0761 40.6903 51.8427 40.4958C51.6094 40.3012 51.446 40.0356 51.3776 39.7396L47.7349 24.4767L45.2509 46.5526C45.2182 46.8392 45.0979 47.1088 44.9065 47.3246C44.715 47.5404 44.4617 47.6919 44.181 47.7586C43.9009 47.8267 43.6067 47.807 43.3382 47.7022C43.0697 47.5973 42.84 47.4124 42.6803 47.1724C42.6803 47.1724 39.2715 42.0413 38.583 41.0119H32.94C32.6527 41.0115 32.3724 40.923 32.1369 40.7585C31.9014 40.594 31.7219 40.3613 31.6226 40.0917L29.2961 33.7737C28.5749 35.8103 27.8549 37.8473 27.1361 39.8847C27.0361 40.171 26.8455 40.417 26.5932 40.5853C26.3408 40.7535 26.0405 40.835 25.7378 40.8173C25.434 40.8024 25.1433 40.6892 24.9094 40.4949C24.6754 40.3005 24.5109 40.0355 24.4406 39.7396L20.8046 24.4868L18.3218 46.5526C18.289 46.839 18.1688 47.1084 17.9776 47.3242C17.7864 47.5399 17.5334 47.6916 17.253 47.7586C16.9728 47.8266 16.6784 47.8069 16.4097 47.7021C16.1411 47.5972 15.9112 47.4123 15.7511 47.1724C15.7511 47.1724 12.3424 42.0413 11.6539 41.0119H7.69501C17.7795 58.9298 36.0461 70.7311 36.0461 70.7311C36.0461 70.7311 54.6435 58.9276 64.8889 41.0119H59.8691L59.868 41.0131Z" fill="#41D399"/>
</svg>
