<svg width="909" height="956" viewBox="0 0 909 956" fill="none" xmlns="http://www.w3.org/2000/svg">
<g opacity="0.1">
<path d="M429.935 734.178C310.718 770.252 245.251 593.542 220.257 530.505C170.412 404.582 40.4018 316.75 49.9875 224.062C59.5732 131.375 167.856 140.637 167.856 140.637" stroke="#BDBDBD" stroke-width="6" stroke-miterlimit="10" stroke-linejoin="round"/>
<path d="M422.48 734.178C542.407 700.718 503.354 518.257 493.982 450.664C475.307 315.629 543.969 170.063 490.502 95.7494C437.036 21.4353 348.634 87.8325 348.634 87.8325" stroke="#BDBDBD" stroke-width="6" stroke-miterlimit="10" stroke-linejoin="round"/>
<path d="M723.115 354.616C782.918 354.616 831.397 303.622 831.397 240.718C831.397 177.813 782.918 126.819 723.115 126.819C663.312 126.819 614.832 177.813 614.832 240.718C614.832 303.622 663.312 354.616 723.115 354.616Z" fill="#878787"/>
<path d="M726.949 332.658C779.536 332.658 822.167 287.817 822.167 232.502C822.167 177.188 779.536 132.346 726.949 132.346C674.362 132.346 631.731 177.188 631.731 232.502C631.731 287.817 674.362 332.658 726.949 332.658Z" fill="#BDBDBD"/>
<path d="M492.704 440.133C486.384 490.473 564.703 674.353 443.213 724.693C307.168 781.157 256.399 571.21 220.328 530.505" stroke="#41D399" stroke-width="8" stroke-miterlimit="10"/>
<path d="M231.689 549.252C231.689 549.252 308.162 634.097 397.841 595.185C482.834 558.289 496.041 460.374 496.041 460.374" stroke="#41D399" stroke-width="5" stroke-miterlimit="10"/>
<path opacity="0.22" d="M716.866 160.055C679.66 169.167 656.583 208.229 665.175 247.365C666.453 253.191 668.441 258.867 671.068 264.244L675.897 274.253C662.264 292.999 651.187 300.169 647.424 321.903C657.08 331.837 668.37 339.753 680.725 345.28C680.725 345.206 680.796 345.131 680.796 345.056C680.796 345.131 680.867 345.206 680.867 345.355C701.245 354.467 724.464 357.23 747.754 351.554C750.381 350.882 752.866 350.06 755.351 349.239L753.15 328.326C753.15 328.326 755.99 301.812 756.629 300.393C758.262 297.032 764.866 295.24 768.274 293.148C776.511 287.92 783.682 280.825 789.221 272.535C794.743 264.162 798.542 254.669 800.376 244.664C802.21 234.658 802.038 224.36 799.871 214.428C791.209 175.292 754.002 150.943 716.866 160.055Z" fill="#212121"/>
<path d="M429.012 717.224C497.106 881.312 601.483 904.54 678.595 890.424C746.333 877.952 836.013 814.094 835.8 698.328C835.516 558.812 747.043 567.625 699.115 478.224C639.4 366.79 720.772 264.468 720.772 264.468" stroke="#41D399" stroke-width="8" stroke-miterlimit="10"/>
<path opacity="0.22" d="M672.701 289.563C672.701 289.563 686.192 282.319 699.115 290.086C719.565 302.335 721.553 319.812 721.553 319.812C721.553 319.812 733.908 293.97 740.511 286.949C747.044 279.854 700.961 244.676 690.524 258.195C680.086 271.713 672.701 289.563 672.701 289.563V289.563Z" fill="#212121"/>
<path d="M197.607 104.861C186.956 104.936 177.584 110.313 171.406 118.454L162.601 111.135C154.578 104.488 142.791 110.538 142.862 121.293L143.146 160.055C143.217 170.81 155.075 176.711 162.956 169.914L171.548 162.595C177.797 170.736 187.311 176.038 198.033 175.964C216.707 175.814 231.76 159.757 231.618 140.114C231.476 120.471 216.281 104.712 197.607 104.861ZM377.25 91.2681L358.433 57.9575C353.179 48.6963 340.114 49.966 336.564 59.9741L332.658 71.0278C323.357 67.3681 312.706 67.891 303.546 73.6419C299.725 76.0272 296.388 79.1816 293.727 82.9248C291.066 86.668 289.133 90.9264 288.038 95.4564C286.943 99.9863 286.708 104.699 287.347 109.324C287.986 113.95 289.485 118.398 291.76 122.413C294.027 126.432 297.026 129.942 300.585 132.741C304.143 135.54 308.192 137.574 312.498 138.726C316.805 139.877 321.285 140.124 325.683 139.452C330.08 138.781 334.308 137.203 338.126 134.811C347.356 129.06 352.895 119.351 354.244 108.969L365.179 110.538C375.261 111.957 382.504 100.529 377.25 91.2681V91.2681Z" fill="#616161"/>
<path d="M739.801 286.949C775.565 286.949 804.558 256.453 804.558 218.834C804.558 181.215 775.565 150.719 739.801 150.719C704.037 150.719 675.044 181.215 675.044 218.834C675.044 256.453 704.037 286.949 739.801 286.949Z" fill="#424242"/>
<path d="M743.067 266.41C770.831 266.41 793.339 242.736 793.339 213.532C793.339 184.327 770.831 160.653 743.067 160.653C715.303 160.653 692.796 184.327 692.796 213.532C692.796 242.736 715.303 266.41 743.067 266.41Z" fill="#D1D1D1"/>
<path d="M300.848 112.853C294.955 103.965 296.091 87.3844 306.245 79.8409C316.398 72.2975 331.735 75.5837 337.629 85.5172C344.232 96.5709 326.978 86.6375 316.824 94.1809C306.671 101.724 307.949 123.608 300.848 112.853ZM177.584 128.836C180.14 118.305 192.708 108.372 204.778 111.508C216.849 114.645 224.518 128.911 221.252 140.114C217.63 152.587 213.441 132.346 201.37 129.284C189.37 126.147 174.53 141.533 177.584 128.836V128.836Z" fill="#757575"/>
</g>
</svg>
