<svg width="72" height="72" viewBox="0 0 72 72" fill="none" xmlns="http://www.w3.org/2000/svg">
<path d="M51 15V21C53.3869 21 55.6761 21.9482 57.364 23.636C59.0518 25.3239 60 27.6131 60 30V63C60 63.7956 59.6839 64.5587 59.1213 65.1213C58.5587 65.6839 57.7956 66 57 66H15C14.2044 66 13.4413 65.6839 12.8787 65.1213C12.3161 64.5587 12 63.7956 12 63V30C12 27.6131 12.9482 25.3239 14.636 23.636C16.3239 21.9482 18.6131 21 21 21V15H51ZM39 33H33V39H27V45H32.997L33 51H39L38.997 45H45V39H39V33ZM57 6V12H15V6H57Z" fill="#41D399"/>
</svg>
