<svg width="67" height="58" viewBox="0 0 67 58" fill="none" xmlns="http://www.w3.org/2000/svg">
<path fill-rule="evenodd" clip-rule="evenodd" d="M58.9779 31.9C59.1479 31.0307 59.1479 30.0153 59.1479 29C59.1479 27.9847 58.9779 27.1153 58.9779 26.1L66.1391 21.3152C66.8221 20.8805 66.9919 20.1557 66.4806 19.4305L59.659 9.42491C59.3176 8.84435 58.2951 8.5556 57.6121 8.84435L49.0851 11.7445C47.3795 10.5848 45.3344 9.56935 43.2877 8.84435L42.0936 1.15973C41.9237 0.580561 41.2409 0 40.3881 0H26.7448C25.8922 0 25.2093 0.580561 25.0394 1.15973L23.6754 8.84435C21.6285 9.56935 19.7532 10.5846 17.8762 11.7445L9.34921 8.84435C8.49645 8.5556 7.64368 8.84435 7.30235 9.42491L0.480689 19.4307C0.140961 20.0097 0.310584 20.8805 0.82202 21.3154L8.15544 26.1C8.15544 27.1153 7.98549 27.9847 7.98549 29C7.98549 30.0153 8.15544 30.8847 8.15544 31.9L0.994049 36.6848C0.311065 37.1195 0.141442 37.8443 0.652557 38.5695L7.47422 48.5751C7.81571 49.1557 8.83826 49.4444 9.52108 49.1557L18.0483 46.2555C19.7537 47.4152 21.7989 48.4307 23.8456 49.1557L25.2097 56.8403C25.3811 57.5653 26.0623 58 26.915 58H40.5584C41.4111 58 42.0939 57.4194 42.2639 56.8403L43.6295 49.1557C45.6748 48.4307 47.5517 47.4154 49.4269 46.2555L57.9541 49.1557C58.8067 49.4444 59.6595 49.1557 60.0009 48.5751L66.8226 38.5693C67.1639 37.9903 66.9925 37.1195 66.4811 36.6846L58.9779 31.9ZM33.5666 39.15C26.9149 39.15 21.6288 34.6557 21.6288 29C21.6288 23.3443 26.9149 18.85 33.5666 18.85C40.2183 18.85 45.5045 23.3443 45.5045 29C45.5045 34.6557 40.2183 39.15 33.5666 39.15Z" fill="black" fill-opacity="0.54"/>
</svg>
