<svg width="36" height="36" viewBox="0 0 36 36" fill="none" xmlns="http://www.w3.org/2000/svg">
<path fill-rule="evenodd" clip-rule="evenodd" d="M33.1211 0H3.0758C1.43475 0 0 1.18156 0 2.80386V32.9148C0 34.5465 1.43475 36 3.0758 36H33.1117C34.7621 36 35.9999 34.5371 35.9999 32.9148V2.80386C36.0093 1.18156 34.7621 0 33.1211 0ZM11.1591 30.0078H6.00155V13.9724H11.1591V30.0078ZM8.75852 11.5343H8.72101C7.07058 11.5343 6.00155 10.3058 6.00155 8.76791C6.00155 7.20188 7.09871 6.00156 8.78665 6.00156C10.4746 6.00156 11.5061 7.1925 11.5436 8.76791C11.5436 10.3058 10.4746 11.5343 8.75852 11.5343ZM30.0078 30.0078H24.8502V21.2399C24.8502 19.1394 24.1 17.7046 22.2339 17.7046C20.8085 17.7046 19.9645 18.6705 19.5894 19.6082C19.4488 19.9458 19.4113 20.4053 19.4113 20.8742V30.0078H14.2537V13.9724H19.4113V16.2042C20.1615 15.1352 21.3336 13.5973 24.0625 13.5973C27.4477 13.5973 30.0078 15.8291 30.0078 20.6397V30.0078Z" fill="#03A9F4"/>
</svg>
