<svg width="39" height="39" viewBox="0 0 39 39" fill="none" xmlns="http://www.w3.org/2000/svg">
<path fill-rule="evenodd" clip-rule="evenodd" d="M19.5 0C8.73038 0 0 8.73047 0 19.5C0 30.2695 8.73038 39 19.5 39C30.2695 39 39 30.2695 39 19.5C39 8.73047 30.2695 0 19.5 0ZM17.4798 36.0937C13.78 35.6506 10.3568 33.9944 7.68113 31.3188C4.52419 28.1618 2.78569 23.9646 2.78569 19.5C2.78569 15.4809 4.19531 11.679 6.77953 8.65697C6.84609 9.45544 7.01044 10.3115 6.96834 10.9234C6.81459 13.1542 6.59447 14.5503 7.90022 16.4323C8.40891 17.1653 8.53388 18.2162 8.78147 19.0646C9.02363 19.8947 9.99103 20.3301 10.6582 20.8415C12.0044 21.8736 13.2922 23.0732 14.7197 23.9815C15.6618 24.5811 16.2502 24.8793 15.9743 26.0289C15.7524 26.9535 15.6905 27.523 15.2122 28.3467C15.0662 28.5981 15.7631 30.214 15.9951 30.446C16.698 31.1488 17.3955 31.7936 18.1617 32.4264C19.3496 33.4079 18.0463 34.6832 17.4798 36.0937ZM31.3188 31.3188C28.9157 33.7219 25.9095 35.3018 22.6417 35.9201C23.1048 34.7749 23.9294 33.7573 24.6943 33.1674C25.3597 32.6541 26.193 31.6666 26.5405 30.8844C26.8878 30.1033 27.3478 29.4262 27.8134 28.7078C28.4757 27.6861 26.1803 26.1451 25.4365 25.8221C23.7627 25.0955 22.5027 24.1149 21.0152 23.0682C19.9553 22.3225 17.8036 23.4577 16.6071 22.9354C14.9682 22.2198 13.618 20.9764 12.1935 19.9036C10.7235 18.7965 10.7946 17.5058 10.7946 15.8726C11.946 15.9151 13.584 15.554 14.3484 16.4799C14.5897 16.7722 15.4191 18.0776 15.9742 17.6138C16.4278 17.2347 15.6382 15.7154 15.4856 15.3582C15.0164 14.2599 16.5548 13.8316 17.3422 13.0868C18.3697 12.1152 20.5737 10.5914 20.3995 9.89494C20.2253 9.19847 18.1942 7.22522 17.0012 7.53309C16.8224 7.57922 15.2483 9.22969 14.9442 9.48862C14.9523 8.94994 14.9603 8.41134 14.9686 7.87266C14.9738 7.53253 14.3341 7.18341 14.3638 6.96403C14.4388 6.40959 15.9821 5.40338 16.366 4.96181C16.0971 4.79372 15.1792 4.00537 14.9015 4.12106C14.2289 4.40137 13.4693 4.5945 12.7968 4.87472C12.7968 4.64147 12.7685 4.42237 12.7347 4.206C14.0825 3.60928 15.5085 3.19434 16.9825 2.973L18.3029 3.50362L19.2352 4.60997L20.1655 5.56931L20.9788 5.83134L22.2706 4.61306L21.9375 3.74334V2.96156C24.4922 3.33262 26.9047 4.28569 29.0177 5.75531C28.6397 5.78916 28.2243 5.84475 27.7556 5.90438C27.562 5.79 27.3137 5.73806 27.1027 5.65847C27.7149 6.97491 28.3536 8.27316 29.0024 9.57216C29.6955 10.9598 31.233 12.4481 31.503 13.9129C31.8212 15.6394 31.6004 17.2076 31.7745 19.2389C31.9421 21.195 33.9799 23.4175 33.9799 23.4175C33.9799 23.4175 34.9208 23.7381 35.7034 23.6264C34.9739 26.5123 33.4784 29.159 31.3188 31.3188Z" fill="black" fill-opacity="0.38"/>
</svg>
