<svg width="37" height="36" viewBox="0 0 37 36" fill="none" xmlns="http://www.w3.org/2000/svg">
<path fill-rule="evenodd" clip-rule="evenodd" d="M33.9439 0H3.64498C1.99007 0 0.543213 1.18156 0.543213 2.80386V32.9148C0.543213 34.5465 1.99007 36 3.64498 36H33.9345C35.5988 36 36.8471 34.5371 36.8471 32.9148V2.80386C36.8566 1.18156 35.5988 0 33.9439 0ZM11.7965 30.0081H6.59541V13.9727H11.7965V30.0081ZM9.37565 11.5346H9.33782C7.67346 11.5346 6.59541 10.3062 6.59541 8.7683C6.59541 7.20227 7.70183 6.00195 9.40402 6.00195C11.1062 6.00195 12.1464 7.19289 12.1843 8.7683C12.1843 10.3062 11.1062 11.5346 9.37565 11.5346ZM30.8042 30.0082H25.6031V21.2403C25.6031 19.1397 24.8466 17.705 22.9647 17.705C21.5273 17.705 20.6762 18.6709 20.298 19.6086C20.1561 19.9462 20.1183 20.4057 20.1183 20.8746V30.0082H14.9172V13.9728H20.1183V16.2046C20.8748 15.1356 22.0569 13.5977 24.8088 13.5977C28.2226 13.5977 30.8042 15.8295 30.8042 20.6401V30.0082Z" fill="#03A9F4"/>
</svg>
