<svg width="34" height="14" viewBox="0 0 34 14" fill="none" xmlns="http://www.w3.org/2000/svg">
<path fill-rule="evenodd" clip-rule="evenodd" d="M10.2547 9.67614C12.0679 7.86294 14.4786 6.85365 17.0428 6.85365C19.6071 6.85365 22.0178 7.86825 23.831 9.68145C24.9814 10.8319 25.8034 12.2144 26.2509 13.7573H33.4571V4.07154C33.4571 1.79925 31.7008 0.0429688 29.4286 0.0429688H4.74285C2.47056 0.0429688 0.542847 1.79925 0.542847 4.07154V13.7573H7.83473C8.28233 12.2144 9.10425 10.8266 10.2547 9.67614ZM30.7143 7.1744C30.7143 7.78031 30.2231 8.27154 29.6171 8.27154H26.3257C25.7198 8.27154 25.2286 7.7804 25.2286 7.1744V3.88297C25.2286 3.27705 25.7197 2.78583 26.3257 2.78583H29.6171C30.223 2.78583 30.7143 3.27697 30.7143 3.88297V7.1744Z" fill="#03A9F4"/>
</svg>
