<svg width="35" height="14" viewBox="0 0 35 14" fill="none" xmlns="http://www.w3.org/2000/svg">
<path fill-rule="evenodd" clip-rule="evenodd" d="M10.7671 9.67614C12.5956 7.86294 15.0267 6.85365 17.6126 6.85365C20.1985 6.85365 22.6295 7.86825 24.458 9.68145C25.6182 10.8319 26.4471 12.2144 26.8983 13.7573H34.1654V4.07154C34.1654 1.79925 32.3943 0.0429688 30.1029 0.0429688H5.20873C2.91726 0.0429688 0.973267 1.79925 0.973267 4.07154V13.7573H8.32672C8.7781 12.2144 9.60695 10.8266 10.7671 9.67614ZM31.3994 7.1747C31.3994 7.78062 30.9041 8.27185 30.293 8.27185H26.9738C26.3628 8.27185 25.8674 7.7807 25.8674 7.1747V3.88328C25.8674 3.27736 26.3627 2.78613 26.9738 2.78613H30.293C30.9041 2.78613 31.3994 3.27728 31.3994 3.88328V7.1747Z" fill="#03A9F4"/>
</svg>
