<svg width="41" height="39" viewBox="0 0 41 39" fill="none" xmlns="http://www.w3.org/2000/svg">
<path fill-rule="evenodd" clip-rule="evenodd" d="M20.3551 0C9.49451 0 0.69043 8.73047 0.69043 19.5C0.69043 30.2695 9.49451 39 20.3551 39C31.2155 39 40.0197 30.2695 40.0197 19.5C40.0197 8.73047 31.2155 0 20.3551 0ZM18.3177 36.0939C14.5868 35.6509 11.1347 33.9947 8.43636 31.319C5.25277 28.1621 3.49959 23.9648 3.49959 19.5003C3.49959 15.4812 4.92112 11.6793 7.52716 8.65723C7.59428 9.4557 7.76001 10.3117 7.71756 10.9236C7.56252 13.1544 7.34053 14.5505 8.65731 16.4326C9.17029 17.1656 9.29631 18.2164 9.546 19.0649C9.7902 19.8949 10.7658 20.3303 11.4386 20.8417C12.7961 21.8738 14.0949 23.0734 15.5344 23.9818C16.4844 24.5813 17.0778 24.8795 16.7996 26.0292C16.5758 26.9538 16.5133 27.5233 16.031 28.347C15.8838 28.5983 16.5866 30.2143 16.8205 30.4462C17.5294 31.1491 18.2328 31.7939 19.0054 32.4267C20.2034 33.4082 18.8891 34.6834 18.3177 36.0939ZM32.2737 31.3191C29.8503 33.7222 26.8187 35.3022 23.5233 35.9205C23.9903 34.7752 24.8219 33.7577 25.5933 33.1678C26.2643 32.6544 27.1046 31.6669 27.4551 30.8848C27.8053 30.1037 28.2692 29.4265 28.7387 28.7082C29.4066 27.6864 27.0919 26.1454 26.3418 25.8225C24.6538 25.0958 23.3832 24.1153 21.8831 23.0686C20.8143 22.3229 18.6444 23.458 17.4378 22.9357C15.7851 22.2201 14.4235 20.9767 12.9869 19.9039C11.5045 18.7969 11.5762 17.5062 11.5762 15.873C12.7373 15.9154 14.3892 15.5543 15.1601 16.4803C15.4033 16.7725 16.2397 18.078 16.7996 17.6141C17.257 17.2351 16.4607 15.7158 16.3069 15.3586C15.8337 14.2603 17.385 13.8319 18.1791 13.0872C19.2152 12.1156 21.4379 10.5918 21.2622 9.89529C21.0866 9.19882 19.0383 7.22557 17.8352 7.53345C17.6549 7.57957 16.0676 9.23004 15.7609 9.48898C15.769 8.95029 15.7771 8.4117 15.7855 7.87301C15.7907 7.53288 15.1456 7.18376 15.1756 6.96438C15.2512 6.40995 16.8075 5.40373 17.1947 4.96216C16.9235 4.79407 15.9979 4.00573 15.7178 4.12141C15.0395 4.40173 14.2736 4.59485 13.5953 4.87507C13.5953 4.64182 13.5668 4.42273 13.5327 4.20635C14.8919 3.60963 16.3299 3.1947 17.8164 2.97335L19.1479 3.50398L20.088 4.61032L21.0263 5.56966L21.8464 5.8317L23.1491 4.61341L22.8132 3.7437V2.96191C25.3895 3.33298 27.8224 4.28604 29.9532 5.75566C29.572 5.78951 29.1531 5.8451 28.6804 5.90473C28.4852 5.79035 28.2348 5.73841 28.022 5.65882C28.6394 6.97526 29.2834 8.27351 29.9378 9.57251C30.6367 10.9601 32.1872 12.4485 32.4595 13.9132C32.7803 15.6397 32.5577 17.208 32.7333 19.2393C32.9023 21.1954 34.9572 23.4179 34.9572 23.4179C34.9572 23.4179 35.9062 23.7384 36.6953 23.6268C35.9597 26.5127 34.4515 29.1593 32.2737 31.3191Z" fill="black" fill-opacity="0.38"/>
</svg>
