<svg width="64" height="64" viewBox="0 0 64 64" fill="none" xmlns="http://www.w3.org/2000/svg">
<path d="M60 5.98594L43.986 5.986V2C43.986 0.895 43.091 0 41.986 0C40.881 0 39.986 0.895 39.986 2V5.985H23.986V2C23.986 0.895 23.091 0 21.986 0C20.881 0 19.986 0.895 19.986 2V5.985H4C1.791 5.985 0 7.776 0 9.985V59.985C0 62.1939 1.791 63.985 4 63.985H60C62.209 63.985 64 62.1939 64 59.985V9.985C64 7.77694 62.209 5.98594 60 5.98594V5.98594ZM60 59.985H4V9.985H19.986V12C19.986 13.1049 20.881 14 21.986 14C23.091 14 23.986 13.1049 23.986 12V9.986H39.986V12.001C39.986 13.106 40.881 14.001 41.986 14.001C43.091 14.001 43.986 13.106 43.986 12.001V9.986H60V59.985ZM46 31.9859H50C51.104 31.9859 52 31.0899 52 29.9859V25.9859C52 24.8819 51.104 23.9859 50 23.9859H46C44.896 23.9859 44 24.8819 44 25.9859V29.9859C44 31.0899 44.896 31.9859 46 31.9859ZM46 47.9849H50C51.104 47.9849 52 47.0899 52 45.9849V41.9849C52 40.8809 51.104 39.9849 50 39.9849H46C44.896 39.9849 44 40.8809 44 41.9849V45.9849C44 47.0909 44.896 47.9849 46 47.9849ZM34 39.9849H30C28.896 39.9849 28 40.8809 28 41.9849V45.9849C28 47.0899 28.896 47.9849 30 47.9849H34C35.104 47.9849 36 47.0899 36 45.9849V41.9849C36 40.8819 35.104 39.9849 34 39.9849ZM34 23.9859H30C28.896 23.9859 28 24.8819 28 25.9859V29.9859C28 31.0899 28.896 31.9859 30 31.9859H34C35.104 31.9859 36 31.0899 36 29.9859V25.9859C36 24.8809 35.104 23.9859 34 23.9859ZM18 23.9859H14C12.896 23.9859 12 24.8819 12 25.9859V29.9859C12 31.0899 12.896 31.9859 14 31.9859H18C19.104 31.9859 20 31.0899 20 29.9859V25.9859C20 24.8809 19.104 23.9859 18 23.9859ZM18 39.9849H14C12.896 39.9849 12 40.8809 12 41.9849V45.9849C12 47.0899 12.896 47.9849 14 47.9849H18C19.104 47.9849 20 47.0899 20 45.9849V41.9849C20 40.8819 19.104 39.9849 18 39.9849Z" fill="white"/>
</svg>
