<svg width="40" height="32" viewBox="0 0 40 32" fill="none" xmlns="http://www.w3.org/2000/svg">
<path fill-rule="evenodd" clip-rule="evenodd" d="M40 3.79167C38.5251 4.43333 36.9485 4.86667 35.2871 5.06667C36.9824 4.06667 38.2878 2.48333 38.8981 0.6C37.313 1.525 35.5584 2.2 33.6851 2.55833C32.1848 0.983333 30.0487 0 27.6923 0C23.1574 0 19.4872 3.61667 19.4872 8.075C19.4872 8.70833 19.555 9.325 19.6991 9.91667C12.8756 9.58333 6.82348 6.36667 2.78025 1.475C2.07671 2.66667 1.66985 4.05833 1.66985 5.53333C1.66985 8.33333 3.12778 10.8083 5.33164 12.2583C3.97542 12.225 2.70396 11.8583 1.60203 11.25C1.60203 11.2833 1.60203 11.3167 1.60203 11.35C1.60203 15.2667 4.43314 18.525 8.18818 19.2667C7.50159 19.45 6.77262 19.55 6.0267 19.55C5.50117 19.55 4.98411 19.5 4.484 19.4C5.52659 22.6083 8.56114 24.9417 12.1551 25.0083C9.34944 27.175 5.80631 28.4667 1.95804 28.4667C1.29688 28.4667 0.644204 28.425 0 28.35C3.61941 30.6667 7.93388 32 12.562 32C27.6754 32 35.9313 19.6917 35.9313 9.01667C35.9313 8.66667 35.9229 8.31667 35.9059 7.975C37.5079 6.83333 38.8981 5.41667 40 3.79167Z" fill="#03A9F4"/>
</svg>
