<svg width="41" height="32" viewBox="0 0 41 32" fill="none" xmlns="http://www.w3.org/2000/svg">
<path fill-rule="evenodd" clip-rule="evenodd" d="M40.8011 3.79167C39.3137 4.43333 37.7238 4.86667 36.0484 5.06667C37.758 4.06667 39.0744 2.48333 39.6899 0.6C38.0914 1.525 36.322 2.2 34.4329 2.55833C32.9199 0.983333 30.7658 0 28.3895 0C23.8163 0 20.1151 3.61667 20.1151 8.075C20.1151 8.70833 20.1835 9.325 20.3288 9.91667C13.4477 9.58333 7.34447 6.36667 3.2671 1.475C2.55762 2.66667 2.14732 4.05833 2.14732 5.53333C2.14732 8.33333 3.61757 10.8083 5.84003 12.2583C4.47236 12.225 3.19017 11.8583 2.07894 11.25C2.07894 11.2833 2.07894 11.3167 2.07894 11.35C2.07894 15.2667 4.93395 18.525 8.72069 19.2667C8.0283 19.45 7.29318 19.55 6.54096 19.55C6.01099 19.55 5.48957 19.5 4.98524 19.4C6.03663 22.6083 9.0968 24.9417 12.7211 25.0083C9.89175 27.175 6.31872 28.4667 2.43795 28.4667C1.77121 28.4667 1.11302 28.425 0.463379 28.35C4.11335 30.6667 8.46425 32 13.1314 32C28.3724 32 36.6981 19.6917 36.6981 9.01667C36.6981 8.66667 36.6895 8.31667 36.6724 7.975C38.288 6.83333 39.6899 5.41667 40.8011 3.79167Z" fill="#03A9F4"/>
</svg>
